<mxfile host="app.diagrams.net" modified="2022-10-13T06:55:11.394Z" agent="5.0 (Windows NT 10.0; Win64; x64) AppleWebKit/537.36 (KHTML, like Gecko) Chrome/106.0.0.0 Safari/537.36" etag="P_c4ftaQ6E7n0sq16jVx" version="20.4.0" type="github">
  <diagram id="CI4unHVtQ4UE1QcUNd7C" name="Trang-1">
    <mxGraphModel dx="1209" dy="634" grid="1" gridSize="10" guides="1" tooltips="1" connect="1" arrows="1" fold="1" page="1" pageScale="1" pageWidth="827" pageHeight="1169" math="0" shadow="0">
      <root>
        <mxCell id="0" />
        <mxCell id="1" parent="0" />
        <mxCell id="oNiTC19kuJh1l0EnBYfA-1" value="&lt;font style=&quot;font-size: 15px;&quot;&gt;Operator&lt;/font&gt;" style="shape=umlActor;verticalLabelPosition=bottom;verticalAlign=top;html=1;outlineConnect=0;" vertex="1" parent="1">
          <mxGeometry x="10" y="200" width="60" height="110" as="geometry" />
        </mxCell>
        <mxCell id="oNiTC19kuJh1l0EnBYfA-17" value="AMWR system" style="swimlane;" vertex="1" parent="1">
          <mxGeometry x="189" y="10" width="450" height="640" as="geometry" />
        </mxCell>
        <mxCell id="oNiTC19kuJh1l0EnBYfA-18" value="Choose product locations to load/unload" style="ellipse;whiteSpace=wrap;html=1;" vertex="1" parent="oNiTC19kuJh1l0EnBYfA-17">
          <mxGeometry x="280" y="540" width="120" height="80" as="geometry" />
        </mxCell>
        <mxCell id="oNiTC19kuJh1l0EnBYfA-2" value="Robot status" style="ellipse;whiteSpace=wrap;html=1;" vertex="1" parent="oNiTC19kuJh1l0EnBYfA-17">
          <mxGeometry x="280" y="40" width="120" height="80" as="geometry" />
        </mxCell>
        <mxCell id="oNiTC19kuJh1l0EnBYfA-37" style="edgeStyle=none;rounded=0;orthogonalLoop=1;jettySize=auto;html=1;exitX=0;exitY=0.5;exitDx=0;exitDy=0;entryX=1;entryY=0.5;entryDx=0;entryDy=0;fontSize=13;endArrow=open;endFill=0;dashed=1;" edge="1" parent="oNiTC19kuJh1l0EnBYfA-17" source="oNiTC19kuJh1l0EnBYfA-5" target="oNiTC19kuJh1l0EnBYfA-32">
          <mxGeometry relative="1" as="geometry" />
        </mxCell>
        <mxCell id="oNiTC19kuJh1l0EnBYfA-53" value="extend" style="edgeLabel;html=1;align=center;verticalAlign=middle;resizable=0;points=[];fontSize=13;" vertex="1" connectable="0" parent="oNiTC19kuJh1l0EnBYfA-37">
          <mxGeometry x="-0.1305" y="1" relative="1" as="geometry">
            <mxPoint as="offset" />
          </mxGeometry>
        </mxCell>
        <mxCell id="oNiTC19kuJh1l0EnBYfA-5" value="Warehouse layout" style="ellipse;whiteSpace=wrap;html=1;" vertex="1" parent="oNiTC19kuJh1l0EnBYfA-17">
          <mxGeometry x="280" y="240" width="120" height="80" as="geometry" />
        </mxCell>
        <mxCell id="oNiTC19kuJh1l0EnBYfA-36" style="edgeStyle=none;rounded=0;orthogonalLoop=1;jettySize=auto;html=1;exitX=0;exitY=0.5;exitDx=0;exitDy=0;fontSize=13;endArrow=open;endFill=0;dashed=1;" edge="1" parent="oNiTC19kuJh1l0EnBYfA-17" source="oNiTC19kuJh1l0EnBYfA-6" target="oNiTC19kuJh1l0EnBYfA-31">
          <mxGeometry relative="1" as="geometry" />
        </mxCell>
        <mxCell id="oNiTC19kuJh1l0EnBYfA-54" value="extend" style="edgeLabel;html=1;align=center;verticalAlign=middle;resizable=0;points=[];fontSize=13;" vertex="1" connectable="0" parent="oNiTC19kuJh1l0EnBYfA-36">
          <mxGeometry x="0.2905" y="3" relative="1" as="geometry">
            <mxPoint as="offset" />
          </mxGeometry>
        </mxCell>
        <mxCell id="oNiTC19kuJh1l0EnBYfA-6" value="Show warehouse camera&amp;nbsp;" style="ellipse;whiteSpace=wrap;html=1;" vertex="1" parent="oNiTC19kuJh1l0EnBYfA-17">
          <mxGeometry x="280" y="340" width="120" height="80" as="geometry" />
        </mxCell>
        <mxCell id="oNiTC19kuJh1l0EnBYfA-3" value="Control robot manually" style="ellipse;whiteSpace=wrap;html=1;" vertex="1" parent="oNiTC19kuJh1l0EnBYfA-17">
          <mxGeometry x="20" y="495" width="120" height="80" as="geometry" />
        </mxCell>
        <mxCell id="oNiTC19kuJh1l0EnBYfA-4" value="Robot path" style="ellipse;whiteSpace=wrap;html=1;" vertex="1" parent="oNiTC19kuJh1l0EnBYfA-17">
          <mxGeometry x="280" y="140" width="120" height="80" as="geometry" />
        </mxCell>
        <mxCell id="oNiTC19kuJh1l0EnBYfA-29" value="&lt;font style=&quot;font-size: 13px;&quot;&gt;Connection check&lt;/font&gt;" style="ellipse;whiteSpace=wrap;html=1;fontSize=15;" vertex="1" parent="oNiTC19kuJh1l0EnBYfA-17">
          <mxGeometry x="20" y="40" width="120" height="80" as="geometry" />
        </mxCell>
        <mxCell id="oNiTC19kuJh1l0EnBYfA-31" value="&lt;font style=&quot;font-size: 12px;&quot;&gt;Video real time&lt;/font&gt;" style="ellipse;whiteSpace=wrap;html=1;fontSize=15;" vertex="1" parent="oNiTC19kuJh1l0EnBYfA-17">
          <mxGeometry x="20" y="340" width="120" height="80" as="geometry" />
        </mxCell>
        <mxCell id="oNiTC19kuJh1l0EnBYfA-32" value="View data&amp;nbsp;" style="ellipse;whiteSpace=wrap;html=1;" vertex="1" parent="oNiTC19kuJh1l0EnBYfA-17">
          <mxGeometry x="20" y="180" width="120" height="80" as="geometry" />
        </mxCell>
        <mxCell id="oNiTC19kuJh1l0EnBYfA-33" style="edgeStyle=none;rounded=0;orthogonalLoop=1;jettySize=auto;html=1;exitX=0;exitY=0.5;exitDx=0;exitDy=0;fontSize=13;endArrow=open;endFill=0;entryX=1;entryY=0.5;entryDx=0;entryDy=0;dashed=1;" edge="1" parent="oNiTC19kuJh1l0EnBYfA-17" source="oNiTC19kuJh1l0EnBYfA-2" target="oNiTC19kuJh1l0EnBYfA-32">
          <mxGeometry relative="1" as="geometry">
            <mxPoint x="240" y="120" as="targetPoint" />
          </mxGeometry>
        </mxCell>
        <mxCell id="oNiTC19kuJh1l0EnBYfA-51" value="extend" style="edgeLabel;html=1;align=center;verticalAlign=middle;resizable=0;points=[];fontSize=13;" vertex="1" connectable="0" parent="oNiTC19kuJh1l0EnBYfA-33">
          <mxGeometry x="-0.219" y="-1" relative="1" as="geometry">
            <mxPoint as="offset" />
          </mxGeometry>
        </mxCell>
        <mxCell id="oNiTC19kuJh1l0EnBYfA-34" style="edgeStyle=none;rounded=0;orthogonalLoop=1;jettySize=auto;html=1;exitX=0;exitY=0.5;exitDx=0;exitDy=0;fontSize=13;endArrow=open;endFill=0;entryX=1;entryY=0.5;entryDx=0;entryDy=0;dashed=1;" edge="1" parent="oNiTC19kuJh1l0EnBYfA-17" source="oNiTC19kuJh1l0EnBYfA-4" target="oNiTC19kuJh1l0EnBYfA-32">
          <mxGeometry relative="1" as="geometry">
            <mxPoint x="141" y="230" as="targetPoint" />
          </mxGeometry>
        </mxCell>
        <mxCell id="oNiTC19kuJh1l0EnBYfA-52" value="extend" style="edgeLabel;html=1;align=center;verticalAlign=middle;resizable=0;points=[];fontSize=13;" vertex="1" connectable="0" parent="oNiTC19kuJh1l0EnBYfA-34">
          <mxGeometry x="-0.2692" y="-1" relative="1" as="geometry">
            <mxPoint as="offset" />
          </mxGeometry>
        </mxCell>
        <mxCell id="oNiTC19kuJh1l0EnBYfA-39" style="edgeStyle=none;rounded=0;orthogonalLoop=1;jettySize=auto;html=1;exitX=0;exitY=0.5;exitDx=0;exitDy=0;entryX=1;entryY=0.5;entryDx=0;entryDy=0;fontSize=13;endArrow=open;endFill=0;dashed=1;" edge="1" parent="oNiTC19kuJh1l0EnBYfA-17" source="oNiTC19kuJh1l0EnBYfA-38" target="oNiTC19kuJh1l0EnBYfA-3">
          <mxGeometry relative="1" as="geometry" />
        </mxCell>
        <mxCell id="oNiTC19kuJh1l0EnBYfA-55" value="extend" style="edgeLabel;html=1;align=center;verticalAlign=middle;resizable=0;points=[];fontSize=13;" vertex="1" connectable="0" parent="oNiTC19kuJh1l0EnBYfA-39">
          <mxGeometry x="-0.3294" y="2" relative="1" as="geometry">
            <mxPoint x="-1" as="offset" />
          </mxGeometry>
        </mxCell>
        <mxCell id="oNiTC19kuJh1l0EnBYfA-38" value="Choose path director" style="ellipse;whiteSpace=wrap;html=1;" vertex="1" parent="oNiTC19kuJh1l0EnBYfA-17">
          <mxGeometry x="280" y="440" width="120" height="80" as="geometry" />
        </mxCell>
        <mxCell id="oNiTC19kuJh1l0EnBYfA-40" style="edgeStyle=none;rounded=0;orthogonalLoop=1;jettySize=auto;html=1;exitX=0;exitY=0.5;exitDx=0;exitDy=0;fontSize=13;endArrow=open;endFill=0;entryX=1;entryY=0.5;entryDx=0;entryDy=0;dashed=1;" edge="1" parent="oNiTC19kuJh1l0EnBYfA-17" source="oNiTC19kuJh1l0EnBYfA-18" target="oNiTC19kuJh1l0EnBYfA-3">
          <mxGeometry relative="1" as="geometry">
            <mxPoint x="141" y="500" as="targetPoint" />
          </mxGeometry>
        </mxCell>
        <mxCell id="oNiTC19kuJh1l0EnBYfA-56" value="extend" style="edgeLabel;html=1;align=center;verticalAlign=middle;resizable=0;points=[];fontSize=13;" vertex="1" connectable="0" parent="oNiTC19kuJh1l0EnBYfA-40">
          <mxGeometry x="0.1789" y="3" relative="1" as="geometry">
            <mxPoint as="offset" />
          </mxGeometry>
        </mxCell>
        <mxCell id="oNiTC19kuJh1l0EnBYfA-41" style="edgeStyle=none;rounded=0;orthogonalLoop=1;jettySize=auto;html=1;exitX=0;exitY=0.5;exitDx=0;exitDy=0;entryX=1;entryY=0.3333333333333333;entryDx=0;entryDy=0;entryPerimeter=0;fontSize=13;endArrow=none;endFill=0;" edge="1" parent="1" source="oNiTC19kuJh1l0EnBYfA-29" target="oNiTC19kuJh1l0EnBYfA-1">
          <mxGeometry relative="1" as="geometry" />
        </mxCell>
        <mxCell id="oNiTC19kuJh1l0EnBYfA-42" style="edgeStyle=none;rounded=0;orthogonalLoop=1;jettySize=auto;html=1;exitX=0;exitY=0.5;exitDx=0;exitDy=0;entryX=1;entryY=0.3333333333333333;entryDx=0;entryDy=0;entryPerimeter=0;fontSize=13;endArrow=none;endFill=0;" edge="1" parent="1" source="oNiTC19kuJh1l0EnBYfA-32" target="oNiTC19kuJh1l0EnBYfA-1">
          <mxGeometry relative="1" as="geometry" />
        </mxCell>
        <mxCell id="oNiTC19kuJh1l0EnBYfA-43" style="edgeStyle=none;rounded=0;orthogonalLoop=1;jettySize=auto;html=1;exitX=0;exitY=0.5;exitDx=0;exitDy=0;fontSize=13;endArrow=none;endFill=0;entryX=1;entryY=0.3333333333333333;entryDx=0;entryDy=0;entryPerimeter=0;" edge="1" parent="1" source="oNiTC19kuJh1l0EnBYfA-31" target="oNiTC19kuJh1l0EnBYfA-1">
          <mxGeometry relative="1" as="geometry">
            <mxPoint x="90" y="240" as="targetPoint" />
          </mxGeometry>
        </mxCell>
        <mxCell id="oNiTC19kuJh1l0EnBYfA-44" style="edgeStyle=none;rounded=0;orthogonalLoop=1;jettySize=auto;html=1;exitX=0;exitY=0.5;exitDx=0;exitDy=0;entryX=1;entryY=0.3333333333333333;entryDx=0;entryDy=0;entryPerimeter=0;fontSize=13;endArrow=none;endFill=0;" edge="1" parent="1" source="oNiTC19kuJh1l0EnBYfA-3" target="oNiTC19kuJh1l0EnBYfA-1">
          <mxGeometry relative="1" as="geometry" />
        </mxCell>
      </root>
    </mxGraphModel>
  </diagram>
</mxfile>
